<svg xmlns="http://www.w3.org/2000/svg" viewBox="0 0 572.4 166.23"><defs><style>.cls-1{fill:#fff;}</style></defs><title>Vivlio Logo</title><g id="Layer_2" data-name="Layer 2"><g id="Layer_1-2" data-name="Layer 1"><path class="cls-1" d="M75.1,161.65a170.82,170.82,0,0,1-8-19.92L22,35.49a32.07,32.07,0,0,0-6.41-10A21.1,21.1,0,0,0,5.5,19.92a19.6,19.6,0,0,1-4.24-2.06,3.43,3.43,0,0,1-1.26-3,2.71,2.71,0,0,1,1.37-2.29,6.08,6.08,0,0,1,3.44-.91q4.8,0,16.71.46,12.37.45,16.72.45,4.57,0,17.86-.45T74,11.68a9.83,9.83,0,0,1,4.23.91c1.3.61,2,1.38,2,2.29A3.61,3.61,0,0,1,78.08,18a13.25,13.25,0,0,1-4.58,1.72q-7.11,1.61-10.08,3.55a6.31,6.31,0,0,0-3,5.61,31.47,31.47,0,0,0,1.14,6.41l29.54,82.89c.61,1.06,1,1.6,1.14,1.6.31,0,.69-.61,1.15-1.83l26.79-70.3a37.74,37.74,0,0,0,2.74-13q0-13-13.73-14.65a18.93,18.93,0,0,1-4.93-2,3.59,3.59,0,0,1-2.17-3.09c0-.91.65-1.64,1.94-2.17a12.26,12.26,0,0,1,4.7-.8l11.22.23q3,.22,10.76.22a113.45,113.45,0,0,0,12.59-.68q8.25-.46,12.59-.46a11.6,11.6,0,0,1,4.93.92,2.93,2.93,0,0,1,1.94,2.74,2.67,2.67,0,0,1-1.26,2.41,14.31,14.31,0,0,1-2.86,1.37c-1.07.38-1.75.65-2.06.8a23.38,23.38,0,0,0-11.68,6.87q-4.58,5-8.7,15.34L101.43,125Q90.66,150,85,161.65a6.84,6.84,0,0,1-2.07,2.86,5.54,5.54,0,0,1-3.2.8C77.69,165.31,76.17,164.09,75.1,161.65Z"/><path class="cls-1" d="M161.19,161.3a2.5,2.5,0,0,1-1.15-2.17c0-2.29,1.38-3.81,4.13-4.58q6.18-1.38,8.47-3.09a6.31,6.31,0,0,0,2.29-5.38V96.62q0-7.56-2.29-11t-7.56-4.12A2.84,2.84,0,0,1,163,80.14a5.22,5.22,0,0,1-.69-2.75,4.34,4.34,0,0,1,.8-2.52,3.16,3.16,0,0,1,1.72-1.37,90.32,90.32,0,0,0,18.2-5q7.9-3.21,17.29-7.79c2.14-1.21,3.66-1.83,4.58-1.83a2.94,2.94,0,0,1,2.18.81,2.65,2.65,0,0,1,.8,1.94L207,70.06q-2.05,17.41-2.06,25.19v50.6a6.09,6.09,0,0,0,2.29,5c1.52,1.22,4.43,2.44,8.7,3.66a9,9,0,0,1,3.09,1.6,3.48,3.48,0,0,1,1,2.75q0,3-3.43,3-4.82,0-14-.46t-13-.46q-3.9,0-12.14.46a137.06,137.06,0,0,1-13.73.69A4.25,4.25,0,0,1,161.19,161.3Zm15.11-118A17.17,17.17,0,0,1,171,30.68a17.73,17.73,0,0,1,5.27-13,17.19,17.19,0,0,1,12.59-5.27,18.13,18.13,0,0,1,13.17,5.27,17.55,17.55,0,0,1,5.38,13.05,17,17,0,0,1-5.38,12.59,18.09,18.09,0,0,1-13.17,5.27A17.15,17.15,0,0,1,176.3,43.27Z"/><path class="cls-1" d="M275.56,164.51a37.19,37.19,0,0,1-2.18-4.35c-.77-1.75-1.37-3.09-1.83-4l-3.21-7.55q-.68-1.83-4.58-11-5.49-12.6-13.51-29.54-2.06-4.57-4.8-10.3t-5.73-12.6a43.62,43.62,0,0,0-5.15-8.81,14.25,14.25,0,0,0-6.52-4.69,8.53,8.53,0,0,1-3.21-2,4.16,4.16,0,0,1-.92-2.86c0-1.83,1.84-2.75,5.5-2.75q2.28,0,11.91.69a71.64,71.64,0,0,0,10.76.68A97.79,97.79,0,0,0,264,64.8q1.83,0,5.84-.35t7.9-.34a10.09,10.09,0,0,1,3.78.69,2.37,2.37,0,0,1,1.72,2.29,2.68,2.68,0,0,1-.92,2.29A10.79,10.79,0,0,1,280,70.64c-.92.38-1.6.65-2.06.8-3.51,1.52-5.27,4.81-5.27,9.84v2.06a12.09,12.09,0,0,0,.92,5.27L289,126.39h.69l13.51-36.18a17.5,17.5,0,0,0,1.37-7.33q0-8.46-7.33-11.21A15.91,15.91,0,0,1,293.3,70a3,3,0,0,1-1.14-2.63,2.34,2.34,0,0,1,1.6-2.29,9.15,9.15,0,0,1,3.66-.69,90.77,90.77,0,0,1,9.16.46l6.64.23q3.88,0,15.8-.69c3.66,0,5.49.91,5.49,2.75A4.16,4.16,0,0,1,333.6,70a8.48,8.48,0,0,1-3.44,1.94,18.82,18.82,0,0,0-7.67,5.16,31.14,31.14,0,0,0-5.84,9L298.79,131q-3,7.54-7.32,16.71A155.78,155.78,0,0,1,283,166.23h-5.27C277,166.23,276.24,165.65,275.56,164.51Z"/><path class="cls-1" d="M334.63,161.3a2.65,2.65,0,0,1-1.26-2.4c0-2.14,1.75-3.66,5.26-4.58a29.59,29.59,0,0,0,6.87-3.2q1.83-1.38,1.83-5.5V35.49a27,27,0,0,0-1.94-11.11q-2-4.23-7.21-5.38c-1.53-.3-2.29-1.44-2.29-3.43s.68-3.13,2.06-3.43a112.36,112.36,0,0,0,15-4.13q8.82-3,15.69-5.49L373.44.69a7.53,7.53,0,0,1,3-.69c1.53,0,2.29.92,2.29,2.75q0,1.83-.57,6.64c-.38,3.2-.65,6.26-.8,9.16V145.16q0,3.9,1.71,5.38a12.12,12.12,0,0,0,4,2.29c1.53.54,2.52.88,3,1a13,13,0,0,1,4,1.95,3.28,3.28,0,0,1,1.25,2.63,2.69,2.69,0,0,1-1.25,2.41,6.16,6.16,0,0,1-3.32.8q-4.82,0-13.05-.46L361.76,161c-2.44,0-6.11.16-11,.46a115.62,115.62,0,0,1-12.82.69A6,6,0,0,1,334.63,161.3Z"/><path class="cls-1" d="M400.91,161.3a2.5,2.5,0,0,1-1.15-2.17c0-2.29,1.38-3.81,4.12-4.58,4.13-.92,6.95-2,8.48-3.09a6.31,6.31,0,0,0,2.29-5.38V96.62q0-7.56-2.29-11t-7.56-4.12a2.82,2.82,0,0,1-2.06-1.37,5.22,5.22,0,0,1-.69-2.75,4.28,4.28,0,0,1,.81-2.52,3.11,3.11,0,0,1,1.71-1.37,90.32,90.32,0,0,0,18.2-5q7.91-3.21,17.29-7.79c2.14-1.21,3.66-1.83,4.58-1.83a2.94,2.94,0,0,1,2.18.81,2.65,2.65,0,0,1,.8,1.94l-.92,8.47q-2.06,17.41-2.06,25.19v50.6a6.09,6.09,0,0,0,2.29,5c1.52,1.22,4.43,2.44,8.7,3.66a8.92,8.92,0,0,1,3.09,1.6,3.48,3.48,0,0,1,1,2.75q0,3-3.43,3-4.81,0-14-.46T429.3,161q-3.9,0-12.13.46a137.41,137.41,0,0,1-13.74.69A4.25,4.25,0,0,1,400.91,161.3ZM416,43.27a17.17,17.17,0,0,1-5.27-12.59,17.73,17.73,0,0,1,5.27-13,17.19,17.19,0,0,1,12.59-5.27,18.13,18.13,0,0,1,13.17,5.27,17.55,17.55,0,0,1,5.38,13.05,17,17,0,0,1-5.38,12.59,18.09,18.09,0,0,1-13.17,5.27A17.15,17.15,0,0,1,416,43.27Z"/><path class="cls-1" d="M492,158.44a45.47,45.47,0,0,1-17.63-17.06A47.45,47.45,0,0,1,468,116.77a53.5,53.5,0,0,1,7.22-27,55.06,55.06,0,0,1,19.46-20,53,53,0,0,1,52.55-.92,49.4,49.4,0,0,1,18.43,17.63,44.9,44.9,0,0,1,6.75,23.7A58.86,58.86,0,0,1,566,137.61,48.32,48.32,0,0,1,547.1,157.3q-12.48,7.32-30.34,7.32A50.36,50.36,0,0,1,492,158.44Zm43.5-11.67q4.8-8,4.81-31.14,0-18.78-6.07-31T518.37,72.35a16.2,16.2,0,0,0-11.91,4.81q-3.9,4.35-5.38,12.59a124.22,124.22,0,0,0-1.49,21.3,76.61,76.61,0,0,0,2.86,21.06q2.87,10.08,7.79,16.26t11.1,6.18Q530.73,154.55,535.54,146.77Z"/></g></g></svg>